<svg width="200" height="200" viewBox="0 0 200 200" xmlns="http://www.w3.org/2000/svg">
  <!-- Background -->
  <rect width="200" height="200" fill="white" stroke="#333" stroke-width="2"/>

  <!-- QR Code pattern (simplified representation) -->
  <!-- Corner squares -->
  <rect x="20" y="20" width="40" height="40" fill="black"/>
  <rect x="24" y="24" width="32" height="32" fill="white"/>
  <rect x="28" y="28" width="24" height="24" fill="black"/>
  <rect x="32" y="32" width="16" height="16" fill="white"/>
  <rect x="36" y="36" width="8" height="8" fill="black"/>

  <rect x="140" y="20" width="40" height="40" fill="black"/>
  <rect x="144" y="24" width="32" height="32" fill="white"/>
  <rect x="148" y="28" width="24" height="24" fill="black"/>
  <rect x="152" y="32" width="16" height="16" fill="white"/>
  <rect x="156" y="36" width="8" height="8" fill="black"/>

  <rect x="20" y="140" width="40" height="40" fill="black"/>
  <rect x="24" y="144" width="32" height="32" fill="white"/>
  <rect x="28" y="148" width="24" height="24" fill="black"/>
  <rect x="32" y="152" width="16" height="16" fill="white"/>
  <rect x="36" y="156" width="8" height="8" fill="black"/>

  <!-- Random pattern dots -->
  <circle cx="80" cy="60" r="3" fill="black"/>
  <circle cx="100" cy="60" r="3" fill="black"/>
  <circle cx="120" cy="60" r="3" fill="black"/>
  <circle cx="60" cy="80" r="3" fill="black"/>
  <circle cx="80" cy="80" r="3" fill="black"/>
  <circle cx="100" cy="80" r="3" fill="black"/>
  <circle cx="120" cy="80" r="3" fill="black"/>
  <circle cx="140" cy="80" r="3" fill="black"/>
  <circle cx="60" cy="100" r="3" fill="black"/>
  <circle cx="100" cy="100" r="3" fill="black"/>
  <circle cx="120" cy="100" r="3" fill="black"/>
  <circle cx="140" cy="100" r="3" fill="black"/>
  <circle cx="80" cy="120" r="3" fill="black"/>
  <circle cx="100" cy="120" r="3" fill="black"/>
  <circle cx="120" cy="120" r="3" fill="black"/>
  <circle cx="140" cy="120" r="3" fill="black"/>

  <!-- Center text -->
  <text x="100" y="175" text-anchor="middle" font-family="Arial, sans-serif" font-size="12" fill="#666">
    Vihara Donation QR
  </text>
</svg>